<svg preserveAspectRatio="none" width="100%" height="100%" overflow="visible" style="display: block;" viewBox="0 0 24 24" fill="none" xmlns="http://www.w3.org/2000/svg">
<g id="CaretLeft">
<path id="Vector" d="M15.75 4.5V19.5C15.7501 19.6484 15.7062 19.7935 15.6238 19.917C15.5414 20.0404 15.4242 20.1367 15.2871 20.1935C15.15 20.2503 14.9991 20.2651 14.8535 20.2361C14.708 20.2072 14.5743 20.1356 14.4694 20.0306L6.96937 12.5306C6.89964 12.461 6.84432 12.3783 6.80658 12.2872C6.76884 12.1962 6.74941 12.0986 6.74941 12C6.74941 11.9014 6.76884 11.8038 6.80658 11.7128C6.84432 11.6217 6.89964 11.539 6.96937 11.4694L14.4694 3.96937C14.5743 3.86437 14.708 3.79284 14.8535 3.76385C14.9991 3.73487 15.15 3.74972 15.2871 3.80653C15.4242 3.86335 15.5414 3.95957 15.6238 4.08301C15.7062 4.20646 15.7501 4.35158 15.75 4.5Z" fill="var(--fill-0, #0A1A3C)"/>
</g>
</svg>
