<svg preserveAspectRatio="none" width="100%" height="100%" overflow="visible" style="display: block;" viewBox="0 0 28 28" fill="none" xmlns="http://www.w3.org/2000/svg">
<g id="material-symbols:face">
<path id="Vector" d="M10.5 16.625C10.0917 16.625 9.74633 16.4838 9.464 16.2015C9.18167 15.9192 9.04089 15.5742 9.04167 15.1667C9.04244 14.7591 9.18361 14.4138 9.46517 14.1307C9.74672 13.8476 10.0917 13.7068 10.5 13.7083C10.9083 13.7099 11.2537 13.8511 11.536 14.1318C11.8183 14.4126 11.9591 14.7576 11.9583 15.1667C11.9576 15.5758 11.8164 15.9211 11.5348 16.2027C11.2533 16.4842 10.9083 16.625 10.5 16.625ZM17.5 16.625C17.0917 16.625 16.7463 16.4838 16.464 16.2015C16.1817 15.9192 16.0409 15.5742 16.0417 15.1667C16.0424 14.7591 16.1836 14.4138 16.4652 14.1307C16.7467 13.8476 17.0917 13.7068 17.5 13.7083C17.9083 13.7099 18.2537 13.8511 18.536 14.1318C18.8183 14.4126 18.9591 14.7576 18.9583 15.1667C18.9576 15.5758 18.8164 15.9211 18.5348 16.2027C18.2533 16.4842 17.9083 16.625 17.5 16.625ZM14 23.3333C16.6056 23.3333 18.8125 22.4292 20.6208 20.6208C22.4292 18.8125 23.3333 16.6056 23.3333 14C23.3333 13.5333 23.3042 13.0814 23.2458 12.6443C23.1875 12.2072 23.0806 11.7841 22.925 11.375C22.5167 11.4722 22.1083 11.5453 21.7 11.5943C21.2917 11.6433 20.8639 11.6674 20.4167 11.6667C18.6472 11.6667 16.975 11.2875 15.4 10.5292C13.825 9.77083 12.4833 8.71111 11.375 7.35C10.7528 8.86667 9.86339 10.1842 8.70683 11.3027C7.55028 12.4211 6.20356 13.2619 4.66667 13.825V14C4.66667 16.6056 5.57083 18.8125 7.37917 20.6208C9.1875 22.4292 11.3944 23.3333 14 23.3333ZM14 25.6667C12.3861 25.6667 10.8694 25.3606 9.45 24.7485C8.03056 24.1364 6.79583 23.3049 5.74583 22.2542C4.69583 21.2034 3.86478 19.9687 3.25267 18.55C2.64056 17.1313 2.33411 15.6147 2.33333 14C2.33256 12.3853 2.639 10.8687 3.25267 9.45C3.86633 8.03133 4.69739 6.79661 5.74583 5.74583C6.79428 4.69506 8.029 3.864 9.45 3.25267C10.871 2.64133 12.3877 2.33489 14 2.33333C15.6123 2.33178 17.129 2.63822 18.55 3.25267C19.971 3.86711 21.2057 4.69817 22.2542 5.74583C23.3026 6.7935 24.1341 8.02822 24.7485 9.45C25.3629 10.8718 25.669 12.3884 25.6667 14C25.6643 15.6116 25.3579 17.1282 24.7473 18.55C24.1368 19.9718 23.3057 21.2065 22.2542 22.2542C21.2026 23.3018 19.9679 24.1333 18.55 24.7485C17.1321 25.3637 15.6154 25.6698 14 25.6667Z" fill="var(--fill-0, #0A1A3C)"/>
</g>
</svg>
