<svg preserveAspectRatio="none" width="100%" height="100%" overflow="visible" style="display: block;" viewBox="0 0 28 28" fill="none" xmlns="http://www.w3.org/2000/svg">
<g id="fe:notice-active">
<path id="Vector" fill-rule="evenodd" clip-rule="evenodd" d="M17.5992 5.66183C17.7378 5.1431 18.0169 4.67268 18.4058 4.30238C18.7946 3.93208 19.2781 3.67625 19.803 3.56306C20.3279 3.44988 20.8738 3.48373 21.3807 3.66088C21.8876 3.83803 22.3357 4.15161 22.6759 4.56711C23.016 4.9826 23.2348 5.48389 23.3084 6.01578C23.3819 6.54767 23.3072 7.08954 23.0926 7.58172C22.8779 8.07391 22.5317 8.49732 22.0918 8.80534C21.652 9.11336 21.1357 9.29404 20.5998 9.3275C20.8654 10.0788 21.0007 10.8699 21 11.6667V18.6667H22.1667C22.8083 18.6667 23.3333 19.1917 23.3333 19.8333C23.3333 20.475 22.8083 21 22.1667 21H17.5V22.1667C17.5 23.0949 17.1313 23.9852 16.4749 24.6415C15.8185 25.2979 14.9283 25.6667 14 25.6667C13.0717 25.6667 12.1815 25.2979 11.5251 24.6415C10.8687 23.9852 10.5 23.0949 10.5 22.1667V21H5.83333C5.19167 21 4.66667 20.475 4.66667 19.8333C4.66667 19.1917 5.19167 18.6667 5.83333 18.6667H7V11.6667C6.99975 10.0122 7.58548 8.41119 8.65331 7.14752C9.72115 5.88385 11.202 5.03924 12.8333 4.7635V3.5C12.8333 3.19058 12.9562 2.89383 13.175 2.67504C13.3938 2.45625 13.6906 2.33333 14 2.33333C14.3094 2.33333 14.6062 2.45625 14.825 2.67504C15.0437 2.89383 15.1667 3.19058 15.1667 3.5V4.7635C16.0264 4.90884 16.8514 5.21351 17.5992 5.66183ZM14 23.3333C14.3094 23.3333 14.6062 23.2104 14.825 22.9916C15.0437 22.7728 15.1667 22.4761 15.1667 22.1667V21H12.8333V22.1667C12.8333 22.4761 12.9562 22.7728 13.175 22.9916C13.3938 23.2104 13.6906 23.3333 14 23.3333ZM9.33333 18.6667H18.6667V11.6667C18.6667 10.429 18.175 9.242 17.2998 8.36684C16.4247 7.49167 15.2377 7 14 7C12.7623 7 11.5753 7.49167 10.7002 8.36684C9.825 9.242 9.33333 10.429 9.33333 11.6667V18.6667Z" fill="var(--fill-0, #0A1A3C)"/>
</g>
</svg>
