<svg preserveAspectRatio="none" width="100%" height="100%" overflow="visible" style="display: block;" viewBox="0 0 16 16" fill="none" xmlns="http://www.w3.org/2000/svg">
<g id="Users">
<path id="Vector" d="M7.32812 9.87C7.99825 9.42387 8.50702 8.77393 8.77919 8.01628C9.05136 7.25864 9.07249 6.43352 8.83944 5.66294C8.6064 4.89236 8.13156 4.21723 7.48514 3.73739C6.83872 3.25755 6.05505 2.99848 5.25 2.99848C4.44495 2.99848 3.66128 3.25755 3.01486 3.73739C2.36844 4.21723 1.8936 4.89236 1.66056 5.66294C1.42751 6.43352 1.44864 7.25864 1.72081 8.01628C1.99298 8.77393 2.50175 9.42387 3.17187 9.87C1.95968 10.3168 0.924441 11.1435 0.220625 12.2269C0.183635 12.2819 0.157941 12.3436 0.145038 12.4086C0.132135 12.4736 0.13228 12.5405 0.145463 12.6055C0.158647 12.6704 0.184607 12.7321 0.221834 12.7869C0.259061 12.8417 0.306813 12.8886 0.362314 12.9248C0.417815 12.961 0.479958 12.9858 0.54513 12.9978C0.610303 13.0097 0.677205 13.0086 0.741948 12.9945C0.80669 12.9804 0.867983 12.9536 0.922261 12.9156C0.97654 12.8776 1.02272 12.8291 1.05813 12.7731C1.51212 12.0749 2.13335 11.5011 2.8654 11.1039C3.59745 10.7066 4.41713 10.4986 5.25 10.4986C6.08287 10.4986 6.90255 10.7066 7.6346 11.1039C8.36665 11.5011 8.98788 12.0749 9.44188 12.7731C9.51521 12.8821 9.62849 12.9579 9.75724 12.984C9.88598 13.0102 10.0198 12.9846 10.1299 12.9128C10.2399 12.841 10.3173 12.7288 10.3452 12.6005C10.3732 12.4721 10.3496 12.3379 10.2794 12.2269C9.57556 11.1435 8.54032 10.3168 7.32812 9.87ZM2.5 6.75C2.5 6.2061 2.66128 5.67442 2.96346 5.22218C3.26563 4.76995 3.69512 4.41747 4.19762 4.20933C4.70012 4.00119 5.25305 3.94673 5.7865 4.05284C6.31995 4.15895 6.80995 4.42086 7.19454 4.80546C7.57914 5.19005 7.84105 5.68005 7.94716 6.2135C8.05327 6.74695 7.99881 7.29988 7.79067 7.80238C7.58253 8.30488 7.23005 8.73437 6.77782 9.03654C6.32558 9.33872 5.7939 9.5 5.25 9.5C4.52091 9.49917 3.82192 9.20918 3.30637 8.69363C2.79082 8.17808 2.50083 7.47909 2.5 6.75ZM15.6338 12.9187C15.5227 12.9912 15.3874 13.0165 15.2577 12.9892C15.1279 12.9619 15.0143 12.8842 14.9419 12.7731C14.4884 12.0744 13.8673 11.5004 13.1351 11.1034C12.4029 10.7063 11.5829 10.4989 10.75 10.5C10.6174 10.5 10.4902 10.4473 10.3964 10.3536C10.3027 10.2598 10.25 10.1326 10.25 10C10.25 9.86739 10.3027 9.74021 10.3964 9.64645C10.4902 9.55268 10.6174 9.5 10.75 9.5C11.155 9.49962 11.5549 9.40979 11.9211 9.23695C12.2874 9.0641 12.6109 8.81249 12.8686 8.50011C13.1264 8.18772 13.3119 7.82227 13.412 7.42986C13.5122 7.03745 13.5244 6.62777 13.4478 6.23009C13.3712 5.83242 13.2078 5.45656 12.9691 5.12937C12.7305 4.80219 12.4225 4.53176 12.0672 4.3374C11.7119 4.14304 11.3181 4.02955 10.9138 4.00504C10.5096 3.98053 10.1049 4.04561 9.72875 4.19563C9.66742 4.22214 9.60139 4.23609 9.53457 4.23666C9.46776 4.23722 9.40151 4.22439 9.33973 4.19891C9.27796 4.17344 9.22192 4.13584 9.17492 4.08834C9.12793 4.04085 9.09093 3.98441 9.06611 3.92237C9.0413 3.86033 9.02917 3.79394 9.03044 3.72714C9.03171 3.66033 9.04637 3.59446 9.07353 3.53341C9.10069 3.47236 9.13982 3.41737 9.18859 3.3717C9.23737 3.32603 9.2948 3.2906 9.3575 3.2675C10.2184 2.92416 11.176 2.9118 12.0455 3.23282C12.9149 3.55383 13.6347 4.18547 14.066 5.00589C14.4973 5.8263 14.6094 6.77735 14.3808 7.67557C14.1522 8.5738 13.5991 9.35554 12.8281 9.87C14.0403 10.3168 15.0756 11.1435 15.7794 12.2269C15.8518 12.3379 15.8771 12.4732 15.8498 12.603C15.8225 12.7327 15.7448 12.8463 15.6338 12.9187Z" fill="var(--fill-0, #0A1A3C)"/>
</g>
</svg>
